<svg viewBox="0 0 40 40" xmlns="http://www.w3.org/2000/svg"><path fill-rule="evenodd" clip-rule="evenodd" d="M20 13.6471L19.9988 13.6483C19.7669 13.4207 19.5048 13.2245 19.2192 13.0653C18.7952 12.8288 18.3279 12.6787 17.8446 12.6237C17.3616 12.5688 16.8721 12.6099 16.4052 12.7447C15.9437 12.8781 15.5131 13.1003 15.1383 13.3991C13.7708 14.3291 13.4401 15.742 13.6653 17.2349C13.8882 18.7123 14.6571 20.3246 15.5534 21.7948C16.4542 23.2725 17.5059 24.642 18.3296 25.6397C18.742 26.1392 19.0986 26.5471 19.3525 26.8305C19.4795 26.9722 19.5809 27.083 19.6508 27.1585C19.6857 27.1963 19.7128 27.2253 19.7313 27.245L19.7526 27.2676L19.7582 27.2735L20 27.5277L20.2418 27.2735L20.2474 27.2676L20.2687 27.245C20.2872 27.2253 20.3143 27.1963 20.3492 27.1585C20.4191 27.083 20.5205 26.9722 20.6475 26.8305C20.9014 26.5471 21.258 26.1392 21.6704 25.6397C22.4941 24.642 23.5458 23.2725 24.4466 21.7948C25.3429 20.3246 26.1118 18.7123 26.3347 17.2349C26.5599 15.742 26.2292 14.3291 24.8617 13.3991C24.4869 13.1003 24.0563 12.8781 23.5948 12.7447C23.1279 12.6099 22.6384 12.5688 22.1554 12.6237C21.6721 12.6787 21.2048 12.8288 20.7808 13.0653C20.4952 13.2245 20.2331 13.4207 20.0012 13.6483L20 13.6471ZM22.6513 20.2688C21.8946 21.5623 20.9319 22.8875 20 24.0269C19.0681 22.8875 18.1054 21.5623 17.3487 20.2688C16.4843 18.7911 15.9293 17.4217 15.9293 16.4337V16.1663C15.9428 16.0032 15.9942 15.8442 16.0797 15.7037C16.1675 15.5592 16.2891 15.4368 16.4346 15.3472L16.4496 15.3379L16.4637 15.3274C16.7939 15.0815 17.1998 14.9544 17.6138 14.968C18.0274 14.9815 18.4234 15.1347 18.736 15.4011C18.8381 15.4882 18.9637 15.5877 19.0973 15.6936C19.4262 15.9543 19.8037 16.2535 20 16.5C20.1963 16.2535 20.5738 15.9543 20.9027 15.6936C21.0363 15.5877 21.1619 15.4882 21.264 15.4011C21.5766 15.1347 21.9726 14.9815 22.3862 14.968C22.8002 14.9544 23.2061 15.0815 23.5363 15.3274L23.5504 15.3379L23.5654 15.3472C23.7109 15.4368 23.8325 15.5592 23.9203 15.7037C24.0058 15.8442 24.0572 16.0032 24.0707 16.1663V16.4337C24.0707 17.4217 23.5157 18.7911 22.6513 20.2688ZM20 16.5V16.1004L20.0009 16.0997L20 16.5Z" fill="white"></path>
<path fill-rule="evenodd" clip-rule="evenodd" d="M8 8V32H32V8H8ZM30 30V10H10V30H30Z" fill="white"></path>
</svg>
